<?xml version="1.0" encoding="utf-8"?>
<!-- Generator: Adobe Illustrator 18.0.0, SVG Export Plug-In . SVG Version: 6.00 Build 0)  -->
<!DOCTYPE svg PUBLIC "-//W3C//DTD SVG 1.1//EN" "http://www.w3.org/Graphics/SVG/1.1/DTD/svg11.dtd">
<svg version="1.1" id="Layer_1" xmlns="http://www.w3.org/2000/svg" xmlns:xlink="http://www.w3.org/1999/xlink" x="0px" y="0px"
	 viewBox="0 0 27 27" enable-background="new 0 0 27 27" xml:space="preserve">
<g>
	<g>
		<g>
			<polygon fill="#333333" points="17.4,16.9 19.7,18.2 19.6,23.1 17.4,22 			"/>
			<polygon fill="#333333" points="17.4,16.9 21.2,16.3 23.6,17.6 19.7,18.2 			"/>
			<linearGradient id="SVGID_1_" gradientUnits="userSpaceOnUse" x1="19.6283" y1="20.369" x2="23.5534" y2="20.369">
				<stop  offset="2.453990e-02" style="stop-color:#E5E5E4"/>
				<stop  offset="0.3804" style="stop-color:#F2F2F2"/>
				<stop  offset="0.6902" style="stop-color:#E3E4E4"/>
				<stop  offset="1" style="stop-color:#D0D1D2"/>
				<stop  offset="1" style="stop-color:#A5A7AA"/>
			</linearGradient>
			<polygon fill="url(#SVGID_1_)" points="19.7,18.2 19.6,23.1 23.6,22.6 23.6,17.6 			"/>
		</g>
		<g>
			<polygon fill="#333333" points="17.4,11.6 19.6,12.8 19.6,17.8 17.4,16.6 			"/>
			<polygon fill="#333333" points="17.4,11.6 21.2,11 23.6,12.2 19.6,12.8 			"/>
			<linearGradient id="SVGID_2_" gradientUnits="userSpaceOnUse" x1="11.1163" y1="15.0083" x2="23.4477" y2="15.0083">
				<stop  offset="2.453990e-02" style="stop-color:#E5E5E4"/>
				<stop  offset="0.3804" style="stop-color:#F2F2F2"/>
				<stop  offset="0.6902" style="stop-color:#E3E4E4"/>
				<stop  offset="1" style="stop-color:#D0D1D2"/>
				<stop  offset="1" style="stop-color:#A5A7AA"/>
			</linearGradient>
			<polygon fill="url(#SVGID_2_)" points="19.6,12.8 19.6,17.8 23.5,17.2 23.5,12.2 			"/>
		</g>
		<g>
			<g>
				<polygon fill="#7D7D7D" points="3.4,15.3 5.7,16.6 5.6,21.5 3.4,20.4 				"/>
				<polygon fill="#333333" points="3.4,15.3 7.3,14.7 9.6,16 5.7,16.6 				"/>
				<polygon fill="#333333" points="5.7,16.6 5.6,21.5 9.6,21 9.6,16 				"/>
			</g>
			<g>
				<polygon fill="#A4A3A3" points="3.4,9.9 5.7,11.1 5.7,16.1 3.4,14.9 				"/>
				<polygon fill="#333333" points="3.4,9.9 7.3,9.3 9.7,10.5 5.7,11.1 				"/>
				<polygon fill="#333333" points="5.7,11.1 5.7,16.1 9.6,15.5 9.6,10.5 				"/>
			</g>
			<g>
				<polygon fill="#797979" points="10.5,15.9 12.8,17.2 12.7,22.2 10.5,21 				"/>
				<polygon fill="#DCDCDB" points="10.5,15.9 14.3,15.4 16.7,16.6 12.8,17.2 				"/>
				<polygon fill="#333333" points="12.8,17.2 12.7,22.2 16.7,21.6 16.7,16.6 				"/>
			</g>
			<g>
				<polygon fill="#7D7D7D" points="6,16.7 8.3,18 8.3,22.9 6,21.8 				"/>
				<polygon fill="#333333" points="6,16.7 9.9,16.1 12.2,17.4 8.3,18 				"/>
				<polygon fill="#333333" points="8.3,18 8.3,22.9 11.4,24.4 12.2,17.4 				"/>
			</g>
			<g>
				<polygon fill="#797979" points="10.5,10.6 12.7,11.8 12.7,16.8 10.5,15.6 				"/>
				<polygon fill="#DCDCDB" points="10.5,10.6 14.3,10 16.7,11.2 12.7,11.8 				"/>
				<polygon fill="#333333" points="12.7,11.8 12.7,16.8 16.6,16.3 16.6,11.2 				"/>
			</g>
			<g>
				<polygon fill="#7D7D7D" stroke="#373737" stroke-width="9.538124e-02" stroke-linecap="round" stroke-linejoin="round" points="
					6,11.2 8.3,12.5 8.3,17.4 6,16.2 				"/>
				<polygon fill="#333333" points="6,11.2 9.9,10.6 12.2,11.9 8.3,12.5 				"/>
				<polygon fill="#333333" points="8.3,12.5 8.3,17.4 12.2,16.9 12.2,11.9 				"/>
			</g>
		</g>
		<g>
			<polygon fill="#3C3C3C" points="13.1,17.5 15.4,18.8 15.3,23.7 13.1,22.5 			"/>
			<polygon fill="#333333" points="13.1,17.5 17,16.9 19.3,18.2 15.4,18.8 			"/>
			<linearGradient id="SVGID_3_" gradientUnits="userSpaceOnUse" x1="10.2401" y1="20.9472" x2="23.8298" y2="20.9472">
				<stop  offset="2.453990e-02" style="stop-color:#E5E5E4"/>
				<stop  offset="0.3804" style="stop-color:#F2F2F2"/>
				<stop  offset="0.6902" style="stop-color:#E3E4E4"/>
				<stop  offset="1" style="stop-color:#D0D1D2"/>
				<stop  offset="1" style="stop-color:#A5A7AA"/>
			</linearGradient>
			<polygon fill="url(#SVGID_3_)" points="15.4,18.8 15.3,23.7 19.3,23.2 19.3,18.2 			"/>
		</g>
		<g>
			<polygon fill="#333333" points="8.7,18.1 12.5,17.5 14.9,18.8 11.1,19.6 			"/>
			<linearGradient id="SVGID_4_" gradientUnits="userSpaceOnUse" x1="12.9257" y1="21.5721" x2="10.2491" y2="18.9405">
				<stop  offset="1.226990e-02" style="stop-color:#94C949"/>
				<stop  offset="1" style="stop-color:#497136"/>
			</linearGradient>
			<polygon fill="url(#SVGID_4_)" points="11.1,19.4 11.1,24.4 14.8,23.8 14.8,18.8 			"/>
			<linearGradient id="SVGID_5_" gradientUnits="userSpaceOnUse" x1="11.1455" y1="23.2357" x2="8.9957" y2="20.0933">
				<stop  offset="1.226990e-02" style="stop-color:#94C949"/>
				<stop  offset="1" style="stop-color:#497136"/>
			</linearGradient>
			<polygon fill="url(#SVGID_5_)" points="8.7,18.1 10.9,19.4 10.9,24.4 8.7,23.2 			"/>
		</g>
		<g>
			<polygon fill="#3C3C3C" points="13.1,12.1 15.4,13.4 15.3,18.4 13.1,17.2 			"/>
			<polygon fill="#333333" points="13.1,12.1 16.9,11.6 19.3,12.8 15.4,13.4 			"/>
			<polygon fill="#A9AAAA" points="15.4,13.4 15.3,18.4 19.2,17.8 19.2,12.8 			"/>
		</g>
		<g>
			<polygon fill="#7D7D7D" stroke="#373737" stroke-width="9.538124e-02" stroke-linecap="round" stroke-linejoin="round" points="
				8.6,12.8 10.9,14 10.9,19 8.6,17.8 			"/>
			<polygon fill="#333333" points="8.6,12.8 12.5,12.2 14.8,13.4 10.9,14 			"/>
			<linearGradient id="SVGID_6_" gradientUnits="userSpaceOnUse" x1="11.0738" y1="16.1879" x2="23.9394" y2="16.1879">
				<stop  offset="2.453990e-02" style="stop-color:#E5E5E4"/>
				<stop  offset="0.3804" style="stop-color:#F2F2F2"/>
				<stop  offset="0.6902" style="stop-color:#E3E4E4"/>
				<stop  offset="1" style="stop-color:#D0D1D2"/>
				<stop  offset="1" style="stop-color:#A5A7AA"/>
			</linearGradient>
			<polygon fill="url(#SVGID_6_)" points="11.1,14 11.1,19 14.8,18.4 14.8,13.4 			"/>
		</g>
		<g>
			<g>
				<polygon fill="#5A5B5B" points="12.2,3.2 14.4,4.4 14.4,9.4 12.2,8.2 				"/>
				<polygon fill="#D2D2D2" points="12.2,3.2 16,2.6 18.4,3.8 14.4,4.4 				"/>
				<polygon fill="#797979" points="14.4,4.4 14.4,9.4 18.3,8.8 18.3,3.8 				"/>
			</g>
			<g>
				<polygon fill="#3C3C3C" points="7.8,3.8 10,5.1 10,10 7.8,8.9 				"/>
				<polygon fill="#D2D2D2" points="7.8,3.8 11.6,3.2 14,4.5 10,5.1 				"/>
				<polygon fill="#333333" points="10,5.1 10,10 13.9,9.5 13.9,4.5 				"/>
			</g>
			<g>
				<polygon fill="#7D7D7D" points="3.4,4.5 5.7,5.7 5.7,10.7 3.4,9.5 				"/>
				<polygon fill="#D2D2D2" points="3.4,4.5 7.3,3.9 9.6,5.2 5.7,5.7 				"/>
				<polygon fill="#333333" points="5.7,5.7 5.7,10.7 9.6,10.2 9.6,5.2 				"/>
			</g>
			<g>
				<polygon fill="#5A5B5B" points="14.8,4.6 17.1,5.8 17.1,10.8 14.8,9.6 				"/>
				<linearGradient id="SVGID_7_" gradientUnits="userSpaceOnUse" x1="14.8169" y1="4.9208" x2="27.3912" y2="4.9208">
					<stop  offset="1.226990e-02" style="stop-color:#94C949"/>
					<stop  offset="1" style="stop-color:#497136"/>
				</linearGradient>
				<polygon fill="url(#SVGID_7_)" points="14.8,4.6 18.7,4 21,5.3 17.1,5.8 				"/>
				<polygon fill="#797979" points="17.1,5.8 17.1,10.8 21,10.3 21,5.3 				"/>
			</g>
			<g>
				<polygon fill="#3C3C3C" points="10.5,5.3 12.8,6.5 12.7,11.5 10.5,10.3 				"/>
				<polygon fill="#DDDDDC" points="10.5,5.3 14.3,4.7 16.7,5.9 12.8,6.5 				"/>
				<polygon fill="#333333" points="12.8,6.5 12.7,11.5 16.7,11 16.7,5.9 				"/>
			</g>
			<g>
				<polygon fill="#7D7D7D" stroke="#373737" stroke-width="9.538124e-02" stroke-linecap="round" stroke-linejoin="round" points="
					6,5.9 8.3,7.1 8.3,12.1 6,10.9 				"/>
				<polygon fill="#DDDDDC" points="6,5.9 9.9,5.3 12.3,6.6 8.3,7.1 				"/>
				<polygon fill="#333333" points="8.3,7.1 8.3,12.1 12.2,11.6 12.2,6.6 				"/>
			</g>
		</g>
		<g>
			<g>
				<polygon fill="#333333" points="17.4,6.1 19.7,7.4 19.6,12.4 17.4,11.2 				"/>
				<polygon fill="#DDDDDC" points="17.4,6.1 21.2,5.6 23.6,6.8 19.7,7.4 				"/>
				<linearGradient id="SVGID_8_" gradientUnits="userSpaceOnUse" x1="11.0826" y1="9.5921" x2="23.5173" y2="9.5921">
					<stop  offset="2.453990e-02" style="stop-color:#E5E5E4"/>
					<stop  offset="0.3804" style="stop-color:#F2F2F2"/>
					<stop  offset="0.6902" style="stop-color:#E3E4E4"/>
					<stop  offset="1" style="stop-color:#D0D1D2"/>
					<stop  offset="1" style="stop-color:#A5A7AA"/>
				</linearGradient>
				<polygon fill="url(#SVGID_8_)" points="19.7,7.4 19.6,12.4 23.6,11.8 23.6,6.8 				"/>
			</g>
			<g>
				<polygon fill="#3C3C3C" points="13.1,6.7 15.4,8 15.3,13 13.1,11.8 				"/>
				<polygon fill="#DDDDDC" points="13.1,6.7 16.9,6.1 19.3,7.4 15.4,8 				"/>
				<linearGradient id="SVGID_9_" gradientUnits="userSpaceOnUse" x1="15.3418" y1="10.1775" x2="19.265" y2="10.1775">
					<stop  offset="2.453990e-02" style="stop-color:#E5E5E4"/>
					<stop  offset="0.3804" style="stop-color:#F2F2F2"/>
					<stop  offset="0.6902" style="stop-color:#E3E4E4"/>
					<stop  offset="1" style="stop-color:#D0D1D2"/>
					<stop  offset="1" style="stop-color:#A5A7AA"/>
				</linearGradient>
				<polygon fill="url(#SVGID_9_)" points="15.4,8 15.3,13 19.3,12.4 19.3,7.4 				"/>
			</g>
			<g>
				<polygon fill="#7D7D7D" stroke="#373737" stroke-width="9.538124e-02" stroke-linecap="round" stroke-linejoin="round" points="
					8.7,7.4 10.9,8.6 10.9,13.6 8.7,12.4 				"/>
				<polygon fill="#DDDDDC" points="8.7,7.4 12.5,6.8 14.9,8 10.9,8.6 				"/>
				<linearGradient id="SVGID_10_" gradientUnits="userSpaceOnUse" x1="10.2658" y1="10.782" x2="24.0621" y2="10.782">
					<stop  offset="2.453990e-02" style="stop-color:#E5E5E4"/>
					<stop  offset="0.3804" style="stop-color:#F2F2F2"/>
					<stop  offset="0.6902" style="stop-color:#E3E4E4"/>
					<stop  offset="1" style="stop-color:#D0D1D2"/>
					<stop  offset="1" style="stop-color:#A5A7AA"/>
				</linearGradient>
				<polygon fill="url(#SVGID_10_)" points="11.1,8.6 11.1,13.5 14.8,13 14.8,8 				"/>
			</g>
		</g>
		<g>
			<linearGradient id="SVGID_11_" gradientUnits="userSpaceOnUse" x1="17.2958" y1="14.0618" x2="17.4584" y2="23.6694">
				<stop  offset="1.226990e-02" style="stop-color:#94C949"/>
				<stop  offset="1" style="stop-color:#497136"/>
			</linearGradient>
			<polygon fill="url(#SVGID_11_)" points="15.4,13.5 15.4,18.4 19.3,17.9 19.3,12.9 			"/>
		</g>
	</g>
</g>
</svg>
