<?xml version="1.0" encoding="utf-8"?>
<!-- Generator: Adobe Illustrator 18.0.0, SVG Export Plug-In . SVG Version: 6.00 Build 0)  -->
<!DOCTYPE svg PUBLIC "-//W3C//DTD SVG 1.1//EN" "http://www.w3.org/Graphics/SVG/1.1/DTD/svg11.dtd">
<svg version="1.1" id="Layer_1" xmlns="http://www.w3.org/2000/svg" xmlns:xlink="http://www.w3.org/1999/xlink" x="0px" y="0px"
	 viewBox="0 0 27 27" enable-background="new 0 0 27 27" xml:space="preserve">
<g>
	<g>
		<g>
			<linearGradient id="SVGID_1_" gradientUnits="userSpaceOnUse" x1="3.27" y1="17.753" x2="7.0415" y2="17.753">
				<stop  offset="0" style="stop-color:#808080"/>
				<stop  offset="1" style="stop-color:#E5E5E4"/>
			</linearGradient>
			<polygon fill="url(#SVGID_1_)" stroke="#4D4E4E" stroke-width="0.3815" stroke-linecap="round" stroke-linejoin="round" points="
				3.3,12.6 7,14.7 7,22.9 3.3,20.9 			"/>
		</g>
		<g>
			<polygon fill="#DDDDDC" stroke="#4D4E4E" stroke-width="0.3815" stroke-linecap="round" stroke-linejoin="round" points="
				9.6,3.3 16,2.3 19.9,4.4 13.4,5.3 			"/>
		</g>
		<g>
			<linearGradient id="SVGID_2_" gradientUnits="userSpaceOnUse" x1="3.2812" y1="9.396" x2="7.0517" y2="9.396">
				<stop  offset="0" style="stop-color:#808080"/>
				<stop  offset="1" style="stop-color:#E5E5E4"/>
			</linearGradient>
			<polygon fill="url(#SVGID_2_)" stroke="#4D4E4E" stroke-width="0.3815" stroke-linecap="round" stroke-linejoin="round" points="
				3.3,4.3 7.1,6.3 7,14.5 3.3,12.6 			"/>
			<polygon fill="#DDDDDC" stroke="#4D4E4E" stroke-width="0.3815" stroke-linecap="round" stroke-linejoin="round" points="
				3.3,4.3 9.6,3.3 13.5,5.4 7.1,6.3 			"/>
		</g>
	</g>
	<g>
		<g>
			<linearGradient id="SVGID_3_" gradientUnits="userSpaceOnUse" x1="17.221" y1="19.1214" x2="23.7095" y2="19.1214">
				<stop  offset="0" style="stop-color:#CCCBCB"/>
				<stop  offset="1" style="stop-color:#E5E5E4"/>
			</linearGradient>
			<polygon fill="url(#SVGID_3_)" stroke="#4D4E4E" stroke-width="0.3815" stroke-linecap="round" stroke-linejoin="round" points="
				17.3,15.5 17.2,23.7 23.7,22.8 23.7,14.5 			"/>
		</g>
		<g>
			<linearGradient id="SVGID_4_" gradientUnits="userSpaceOnUse" x1="10.3528" y1="30.2709" x2="8.8688" y2="19.5597">
				<stop  offset="1.226990e-02" style="stop-color:#94C949"/>
				<stop  offset="1" style="stop-color:#497136"/>
			</linearGradient>
			<polygon fill="url(#SVGID_4_)" stroke="#4D4E4E" stroke-width="0.3815" stroke-linecap="round" stroke-linejoin="round" points="
				7,14.5 10.8,16.5 10.7,24.7 7,22.8 			"/>
			<linearGradient id="SVGID_5_" gradientUnits="userSpaceOnUse" x1="14.1399" y1="20.5259" x2="11.3427" y2="14.6691">
				<stop  offset="1.226990e-02" style="stop-color:#94C949"/>
				<stop  offset="1" style="stop-color:#497136"/>
			</linearGradient>
			<polygon fill="url(#SVGID_5_)" stroke="#4D4E4E" stroke-width="0.3815" stroke-linecap="round" stroke-linejoin="round" points="
				10.8,16.5 10.7,24.7 17.2,23.8 17.2,15.6 			"/>
		</g>
		<g>
			<polygon fill="#DDDDDC" stroke="#4D4E4E" stroke-width="0.3815" stroke-linecap="round" stroke-linejoin="round" points="
				13.5,5.3 19.8,4.3 23.7,6.4 17.2,7.3 			"/>
			<linearGradient id="SVGID_6_" gradientUnits="userSpaceOnUse" x1="17.1772" y1="10.9366" x2="23.6722" y2="10.9366">
				<stop  offset="0" style="stop-color:#CCCBCB"/>
				<stop  offset="1" style="stop-color:#E5E5E4"/>
			</linearGradient>
			<polygon fill="url(#SVGID_6_)" stroke="#4D4E4E" stroke-width="0.3815" stroke-linecap="round" stroke-linejoin="round" points="
				17.2,7.3 17.2,15.5 23.7,14.6 23.7,6.4 			"/>
		</g>
		<g>
			<linearGradient id="SVGID_7_" gradientUnits="userSpaceOnUse" x1="6.952" y1="11.4033" x2="10.7249" y2="11.4033">
				<stop  offset="0" style="stop-color:#808080"/>
				<stop  offset="1" style="stop-color:#E5E5E4"/>
			</linearGradient>
			<polygon fill="url(#SVGID_7_)" stroke="#4D4E4E" stroke-width="0.3815" stroke-linecap="round" stroke-linejoin="round" points="
				7,6.3 10.7,8.3 10.7,16.5 7,14.6 			"/>
			<polygon fill="#DDDDDC" stroke="#4D4E4E" stroke-width="0.3815" stroke-linecap="round" stroke-linejoin="round" points="7,6.3 
				13.3,5.3 17.2,7.4 10.7,8.3 			"/>
			<linearGradient id="SVGID_8_" gradientUnits="userSpaceOnUse" x1="10.6602" y1="11.9538" x2="17.1575" y2="11.9538">
				<stop  offset="0" style="stop-color:#CCCBCB"/>
				<stop  offset="1" style="stop-color:#E5E5E4"/>
			</linearGradient>
			<polygon fill="url(#SVGID_8_)" stroke="#4D4E4E" stroke-width="0.3815" stroke-linecap="round" stroke-linejoin="round" points="
				10.7,8.3 10.7,16.5 17.2,15.6 17.2,7.4 			"/>
		</g>
	</g>
</g>
</svg>
