<?xml version="1.0" encoding="utf-8"?>
<!-- Generator: Adobe Illustrator 18.0.0, SVG Export Plug-In . SVG Version: 6.00 Build 0)  -->
<!DOCTYPE svg PUBLIC "-//W3C//DTD SVG 1.1//EN" "http://www.w3.org/Graphics/SVG/1.1/DTD/svg11.dtd">
<svg version="1.1" id="Layer_1" xmlns="http://www.w3.org/2000/svg" xmlns:xlink="http://www.w3.org/1999/xlink" x="0px" y="0px"
	 viewBox="0 0 27 27" enable-background="new 0 0 27 27" xml:space="preserve">
<g>
	<g>
		<g>
			
				<polygon fill="#FBFCFA" stroke="#94C949" stroke-width="0.3815" stroke-linecap="round" stroke-linejoin="round" stroke-miterlimit="10" points="
				19.9,18.4 19.9,23.6 24,23 24,17.8 			"/>
		</g>
		<g>
			
				<polygon fill="#FBFCFA" stroke="#94C949" stroke-width="0.3815" stroke-linecap="round" stroke-linejoin="round" stroke-miterlimit="10" points="
				3,9.8 5.4,11.1 5.4,16.2 3,15 			"/>
		</g>
		<g>
			<g>
				<linearGradient id="SVGID_1_" gradientUnits="userSpaceOnUse" x1="11.8921" y1="3.152" x2="18.3289" y2="3.152">
					<stop  offset="1.226990e-02" style="stop-color:#94C949"/>
					<stop  offset="1" style="stop-color:#497136"/>
				</linearGradient>
				
					<polygon fill="url(#SVGID_1_)" stroke="#FFFFFE" stroke-width="0.4769" stroke-linecap="square" stroke-linejoin="round" stroke-miterlimit="10" points="
					11.9,2.8 15.9,2.2 18.3,3.5 14.3,4.1 				"/>
			</g>
			<g>
				<linearGradient id="SVGID_2_" gradientUnits="userSpaceOnUse" x1="7.5831" y1="4.7864" x2="17.0863" y2="4.7864">
					<stop  offset="1.226990e-02" style="stop-color:#94C949"/>
					<stop  offset="1" style="stop-color:#497136"/>
				</linearGradient>
				
					<polygon fill="url(#SVGID_2_)" stroke="#FFFFFE" stroke-width="0.4769" stroke-linecap="square" stroke-linejoin="round" stroke-miterlimit="10" points="
					7.6,3.5 11.6,2.9 17.1,5.9 13.1,6.7 				"/>
			</g>
			<linearGradient id="SVGID_3_" gradientUnits="userSpaceOnUse" x1="3.0394" y1="4.5168" x2="9.7757" y2="4.5168">
				<stop  offset="1.226990e-02" style="stop-color:#94C949"/>
				<stop  offset="1" style="stop-color:#497136"/>
			</linearGradient>
			
				<polygon fill="url(#SVGID_3_)" stroke="#FFFFFE" stroke-width="0.4769" stroke-linecap="square" stroke-linejoin="round" stroke-miterlimit="10" points="
				3,4.2 7.3,3.5 9.8,4.8 5.9,5.5 			"/>
			<g>
				<linearGradient id="SVGID_4_" gradientUnits="userSpaceOnUse" x1="14.1443" y1="5.4527" x2="23.8357" y2="5.4527">
					<stop  offset="1.226990e-02" style="stop-color:#94C949"/>
					<stop  offset="1" style="stop-color:#497136"/>
				</linearGradient>
				
					<polygon fill="url(#SVGID_4_)" stroke="#FFFFFE" stroke-width="0.4769" stroke-linecap="square" stroke-linejoin="round" stroke-miterlimit="10" points="
					14.1,4.2 18.1,3.5 23.8,6.6 19.9,7.4 				"/>
			</g>
			<g>
				<g>
					<linearGradient id="SVGID_5_" gradientUnits="userSpaceOnUse" x1="6.5944" y1="25.2648" x2="3.0234" y2="15.4781">
						<stop  offset="1.226990e-02" style="stop-color:#94C949"/>
						<stop  offset="1" style="stop-color:#497136"/>
					</linearGradient>
					<polygon fill="url(#SVGID_5_)" stroke="#FFFFFE" stroke-width="0.4769" stroke-miterlimit="10" points="3,20.7 5.3,21.9 
						5.4,16.7 3,15.4 					"/>
					<linearGradient id="SVGID_6_" gradientUnits="userSpaceOnUse" x1="9.4982" y1="24.2057" x2="5.9266" y2="14.4175">
						<stop  offset="1.226990e-02" style="stop-color:#94C949"/>
						<stop  offset="1" style="stop-color:#497136"/>
					</linearGradient>
					<polygon fill="url(#SVGID_6_)" stroke="#FFFFFE" stroke-width="0.4769" stroke-miterlimit="10" points="5.7,22.1 10.7,24.6 
						10.8,19.5 5.7,16.9 					"/>
					<linearGradient id="SVGID_7_" gradientUnits="userSpaceOnUse" x1="9.4213" y1="24.2332" x2="5.8502" y2="14.4462">
						<stop  offset="1.226990e-02" style="stop-color:#94C949"/>
						<stop  offset="1" style="stop-color:#497136"/>
					</linearGradient>
					<polygon fill="url(#SVGID_7_)" stroke="#FFFFFE" stroke-width="0.4769" stroke-miterlimit="10" points="3.1,15 8.1,17.6 
						8.1,12.4 3.1,9.7 					"/>
					<linearGradient id="SVGID_8_" gradientUnits="userSpaceOnUse" x1="12.2563" y1="23.1993" x2="8.6849" y2="13.4116">
						<stop  offset="1.226990e-02" style="stop-color:#94C949"/>
						<stop  offset="1" style="stop-color:#497136"/>
					</linearGradient>
					<polygon fill="url(#SVGID_8_)" stroke="#FFFFFE" stroke-width="0.4769" stroke-miterlimit="10" points="8.5,12.8 8.5,18 
						10.8,19.2 10.8,14.1 					"/>
					<linearGradient id="SVGID_9_" gradientUnits="userSpaceOnUse" x1="10.2407" y1="23.9344" x2="6.6695" y2="14.1473">
						<stop  offset="1.226990e-02" style="stop-color:#94C949"/>
						<stop  offset="1" style="stop-color:#497136"/>
					</linearGradient>
					<polygon fill="url(#SVGID_9_)" stroke="#FFFFFE" stroke-width="0.4769" stroke-miterlimit="10" points="5.4,5.5 3,4.2 3,9.4 
						5.4,10.6 					"/>
					<linearGradient id="SVGID_10_" gradientUnits="userSpaceOnUse" x1="13.0231" y1="22.9195" x2="9.4519" y2="13.1323">
						<stop  offset="1.226990e-02" style="stop-color:#94C949"/>
						<stop  offset="1" style="stop-color:#497136"/>
					</linearGradient>
					<polygon fill="url(#SVGID_10_)" stroke="#FFFFFE" stroke-width="0.4769" stroke-miterlimit="10" points="10.8,8.9 5.7,5.9 
						5.7,11 10.8,13.6 					"/>
				</g>
				<linearGradient id="SVGID_11_" gradientUnits="userSpaceOnUse" x1="5.7593" y1="5.9804" x2="12.2228" y2="5.9804">
					<stop  offset="1.226990e-02" style="stop-color:#94C949"/>
					<stop  offset="1" style="stop-color:#497136"/>
				</linearGradient>
				
					<polygon fill="url(#SVGID_11_)" stroke="#94C949" stroke-width="0.3815" stroke-linecap="round" stroke-linejoin="round" stroke-miterlimit="10" points="
					5.8,5.6 9.8,5 12.2,6.3 8.1,6.9 				"/>
			</g>
		</g>
		<g>
			<linearGradient id="SVGID_12_" gradientUnits="userSpaceOnUse" x1="12.45" y1="7.0487" x2="19.6777" y2="7.0487">
				<stop  offset="1.226990e-02" style="stop-color:#94C949"/>
				<stop  offset="1" style="stop-color:#497136"/>
			</linearGradient>
			
				<polygon fill="url(#SVGID_12_)" stroke="#FEFDFC" stroke-width="0.4769" stroke-linecap="square" stroke-linejoin="round" stroke-miterlimit="10" points="
				12.5,6.6 16.8,5.9 19.7,7.4 15.2,8.2 			"/>
			<linearGradient id="SVGID_13_" gradientUnits="userSpaceOnUse" x1="5.6978" y1="6.794" x2="15.3897" y2="6.794">
				<stop  offset="1.226990e-02" style="stop-color:#94C949"/>
				<stop  offset="1" style="stop-color:#497136"/>
			</linearGradient>
			
				<polygon fill="url(#SVGID_13_)" stroke="#FFFFFE" stroke-width="0.4769" stroke-linecap="square" stroke-linejoin="round" stroke-miterlimit="10" points="
				5.7,5.6 9.6,4.8 15.4,8.1 11,8.8 			"/>
			<g>
				<linearGradient id="SVGID_14_" gradientUnits="userSpaceOnUse" x1="26.2143" y1="20.0695" x2="14.4434" y2="6.4466">
					<stop  offset="1.226990e-02" style="stop-color:#94C949"/>
					<stop  offset="1" style="stop-color:#497136"/>
				</linearGradient>
				<polygon fill="url(#SVGID_14_)" stroke="#FEFDFC" stroke-width="0.4769" stroke-miterlimit="10" points="19.9,12.8 19.9,18 
					24,17.4 24,12.2 				"/>
				<linearGradient id="SVGID_15_" gradientUnits="userSpaceOnUse" x1="22.0644" y1="23.6558" x2="10.2936" y2="10.0329">
					<stop  offset="1.226990e-02" style="stop-color:#94C949"/>
					<stop  offset="1" style="stop-color:#497136"/>
				</linearGradient>
				<polygon fill="url(#SVGID_15_)" stroke="#FEFDFC" stroke-width="0.4769" stroke-miterlimit="10" points="15.4,24.2 24,22.9 
					24,17.7 15.5,19 				"/>
				<linearGradient id="SVGID_16_" gradientUnits="userSpaceOnUse" x1="17.7747" y1="27.3617" x2="6.0045" y2="13.7395">
					<stop  offset="1.226990e-02" style="stop-color:#94C949"/>
					<stop  offset="1" style="stop-color:#497136"/>
				</linearGradient>
				<polygon fill="url(#SVGID_16_)" stroke="#FEFDFC" stroke-width="0.4769" stroke-miterlimit="10" points="11,24.8 15.1,24.2 
					15.1,19 11.1,19.6 				"/>
				<linearGradient id="SVGID_17_" gradientUnits="userSpaceOnUse" x1="21.9246" y1="23.7753" x2="10.1544" y2="10.1531">
					<stop  offset="1.226990e-02" style="stop-color:#94C949"/>
					<stop  offset="1" style="stop-color:#497136"/>
				</linearGradient>
				<polygon fill="url(#SVGID_17_)" stroke="#FEFDFC" stroke-width="0.4769" stroke-miterlimit="10" points="19.5,12.8 11.1,14.1 
					11.1,19.4 19.5,18 				"/>
				<linearGradient id="SVGID_18_" gradientUnits="userSpaceOnUse" x1="27.4123" y1="19.0347" x2="15.6413" y2="5.4115">
					<stop  offset="1.226990e-02" style="stop-color:#94C949"/>
					<stop  offset="1" style="stop-color:#497136"/>
				</linearGradient>
				<polygon fill="url(#SVGID_18_)" stroke="#FEFDFC" stroke-width="0.4769" stroke-miterlimit="10" points="23.9,11.8 23.9,7.1 
					15.4,8.4 15.4,13 				"/>
				<linearGradient id="SVGID_19_" gradientUnits="userSpaceOnUse" x1="23.2173" y1="22.6619" x2="11.4446" y2="9.0368">
					<stop  offset="1.226990e-02" style="stop-color:#94C949"/>
					<stop  offset="1" style="stop-color:#497136"/>
				</linearGradient>
				<polygon fill="url(#SVGID_19_)" stroke="#FEFDFC" stroke-width="0.4769" stroke-miterlimit="10" points="15.2,13 15.2,8.4 
					11.1,8.9 11.1,13.6 				"/>
			</g>
		</g>
	</g>
</g>
</svg>
