<?xml version="1.0" encoding="utf-8"?>
<!-- Generator: Adobe Illustrator 18.0.0, SVG Export Plug-In . SVG Version: 6.00 Build 0)  -->
<!DOCTYPE svg PUBLIC "-//W3C//DTD SVG 1.1//EN" "http://www.w3.org/Graphics/SVG/1.1/DTD/svg11.dtd">
<svg version="1.1" id="Layer_1" xmlns="http://www.w3.org/2000/svg" xmlns:xlink="http://www.w3.org/1999/xlink" x="0px" y="0px"
	 viewBox="0 0 100 100" enable-background="new 0 0 100 100" xml:space="preserve">
<g>
	<g>
		<polygon fill="none" stroke="#FFFFFF" stroke-width="2" stroke-miterlimit="10" points="86.2,46.2 79,50 84.9,55.5 77,57.3 
			81.3,64.3 73.2,63.9 75.6,71.7 67.8,69.3 68.1,77.5 61.2,73.2 59.4,81.1 53.8,75.1 50,82.3 46.2,75.1 40.6,81.1 38.8,73.2 
			31.9,77.5 32.2,69.3 24.4,71.7 26.8,63.9 18.7,64.3 23,57.3 15.1,55.5 21,50 13.8,46.2 21,42.3 15.1,36.8 23,35 18.7,28.1 
			26.8,28.4 24.4,20.6 32.2,23 31.9,14.8 38.8,19.2 40.6,11.2 46.2,17.2 50,10 53.8,17.2 59.4,11.2 61.2,19.2 68.1,14.8 67.8,23 
			75.6,20.6 73.2,28.4 81.3,28.1 77,35 84.9,36.8 79,42.3 		"/>
	</g>
	<g>
		<polygon fill="#70BE44" points="86.2,46.2 79,50 84.9,55.5 77,57.4 81.3,64.3 73.2,64 75.6,71.7 67.8,69.4 68.1,77.5 61.2,73.2 
			59.4,81.1 53.8,75.1 50,82.3 46.2,75.1 40.6,81.1 38.8,73.2 31.9,77.5 32.2,69.4 24.4,71.7 26.8,64 18.7,64.3 23,57.4 15.1,55.5 
			21,50 13.8,46.2 21,42.4 15.1,36.8 23,35 18.7,28.1 26.8,28.4 24.4,20.6 32.2,23 31.9,14.8 38.8,19.2 40.6,11.2 46.2,17.2 50,10 
			53.8,17.2 59.4,11.2 61.2,19.2 68.1,14.8 67.8,23 75.6,20.6 73.2,28.4 81.3,28.1 77,35 84.9,36.8 79,42.4 		"/>
	</g>
	<circle fill="none" stroke="#FFFFFF" stroke-width="1.987" stroke-miterlimit="10" cx="50" cy="45.2" r="26.2"/>
	<circle fill="#70BE44" cx="50" cy="45.2" r="22.3"/>
	<g>
		<g>
			<path fill="#FFFFFF" d="M47.3,60.3c0.3-0.3,0.4-0.7,0.4-1.1c0-0.4-0.1-0.7-0.4-0.9c-0.3-0.2-0.6-0.4-1-0.4
				c-0.7,0-1.3,0.4-1.8,1.1l-1.2-0.7c0.4-0.6,0.8-1,1.3-1.3c0.5-0.3,1.1-0.4,1.8-0.4c0.7,0,1.4,0.2,2,0.7c0.6,0.5,0.8,1.1,0.8,1.9
				c0,0.5-0.1,0.9-0.4,1.3c-0.2,0.4-0.7,0.9-1.3,1.6l-2.1,2.1h4v1.4h-6.1v-1.3l2.7-2.7C46.6,61.1,47,60.7,47.3,60.3z"/>
			<path fill="#FFFFFF" d="M54.3,62.1v-1.6h1.4v1.6h1.1v1.4h-1.1v2.2h-1.4v-2.2h-3.8v-1.3l3.3-5.3h1.6l-3.2,5.3H54.3z"/>
		</g>
		
			<text transform="matrix(1 0 0 1 37.8435 52.7395)" fill="#FFFFFF" font-family="'MontserratAlternates-Regular'" font-size="35.9652">T</text>
		<line fill="none" stroke="#F9F9F9" stroke-width="0.9935" stroke-miterlimit="10" x1="46.3" y1="52.7" x2="53.7" y2="52.7"/>
		<line fill="none" stroke="#F9F9F9" stroke-width="0.9935" stroke-miterlimit="10" x1="37.8" y1="29.5" x2="41.6" y2="34.9"/>
		<line fill="none" stroke="#F9F9F9" stroke-width="0.9935" stroke-miterlimit="10" x1="62.1" y1="30.2" x2="58.4" y2="35.5"/>
	</g>
	<g>
		<path id="SVGID_x5F_1_x5F_" fill="none" d="M96.2,46.2C96.2,20.7,75.5,0,50,0S3.8,20.7,3.8,46.2S24.5,92.3,50,92.3
			S96.2,71.7,96.2,46.2z"/>
		<text>		<textPath  xlink:href="#SVGID_x5F_1_x5F_" startOffset="-54.191%">
<tspan  fill="#70BE44" font-family="'Montserrat-Regular'" font-size="10.7031" letter-spacing="100">COMPLIANCE</tspan>		</textPath>
</text>
	</g>
</g>
</svg>
