<?xml version="1.0" encoding="utf-8"?>
<!-- Generator: Adobe Illustrator 18.0.0, SVG Export Plug-In . SVG Version: 6.00 Build 0)  -->
<!DOCTYPE svg PUBLIC "-//W3C//DTD SVG 1.1//EN" "http://www.w3.org/Graphics/SVG/1.1/DTD/svg11.dtd">
<svg version="1.1" id="Layer_1" xmlns="http://www.w3.org/2000/svg" xmlns:xlink="http://www.w3.org/1999/xlink" x="0px" y="0px"
	 viewBox="0 0 27 27" enable-background="new 0 0 27 27" xml:space="preserve">
<g opacity="0.8">
	<g>
		<path fill="#58595B" d="M12.7,21.8c-3.8-2.2-8.4-2.2-12.2,0c0-5.5,0-11,0-16.5c3.8-2.2,8.4-2.2,12.2,0
			C12.7,10.8,12.7,16.3,12.7,21.8z"/>
		
			<path fill="none" stroke="#FFFFFE" stroke-width="0.461" stroke-linecap="square" stroke-linejoin="round" stroke-miterlimit="10" d="
			M12.7,21.8c-3.8-2.2-8.4-2.2-12.2,0c0-5.5,0-11,0-16.5c3.8-2.2,8.4-2.2,12.2,0C12.7,10.8,12.7,16.3,12.7,21.8z"/>
	</g>
	<g>
		<path fill="#58595B" d="M26.5,21.8c-3.8-2.2-8.4-2.2-12.2,0c0-5.5,0-11,0-16.5c3.8-2.2,8.4-2.2,12.2,0
			C26.5,10.8,26.5,16.3,26.5,21.8z"/>
		
			<path fill="none" stroke="#FFFFFE" stroke-width="0.461" stroke-linecap="square" stroke-linejoin="round" stroke-miterlimit="10" d="
			M26.5,21.8c-3.8-2.2-8.4-2.2-12.2,0c0-5.5,0-11,0-16.5c3.8-2.2,8.4-2.2,12.2,0C26.5,10.8,26.5,16.3,26.5,21.8z"/>
	</g>
	<text transform="matrix(1 0 0 1 15.9723 18.6035)" fill="#FFFFFF" font-family="'Montserrat-Bold'" font-size="17.0265">?</text>
</g>
</svg>
